<svg width="24" height="24" viewBox="0 0 24 24" fill="none" xmlns="http://www.w3.org/2000/svg">
<path fill-rule="evenodd" clip-rule="evenodd" d="M6 2H18C20.2091 2 22 3.79086 22 6V18C22 20.2091 20.2091 22 18 22H6C3.79086 22 2 20.2091 2 18V6C2 3.79086 3.79086 2 6 2ZM19.7041 19.7041C20.1561 19.2522 20.41 18.6392 20.41 18V6C20.41 5.36083 20.1561 4.74784 19.7041 4.29587C19.2522 3.84391 18.6392 3.59 18 3.59H6C4.66899 3.59 3.59 4.66899 3.59 6V18C3.59 18.6392 3.84391 19.2522 4.29587 19.7041C4.74784 20.1561 5.36083 20.41 6 20.41H18C18.6392 20.41 19.2522 20.1561 19.7041 19.7041Z" fill="black"/>
<path d="M16 11.25H12.75V8C12.75 7.58579 12.4142 7.25 12 7.25C11.5858 7.25 11.25 7.58579 11.25 8V11.25H8C7.58579 11.25 7.25 11.5858 7.25 12C7.25 12.4142 7.58579 12.75 8 12.75H11.25V16C11.25 16.4142 11.5858 16.75 12 16.75C12.4142 16.75 12.75 16.4142 12.75 16V12.75H16C16.4142 12.75 16.75 12.4142 16.75 12C16.75 11.5858 16.4142 11.25 16 11.25Z" fill="black"/>
</svg>
