<svg width="24" height="24" viewBox="0 0 24 24" fill="none" xmlns="http://www.w3.org/2000/svg">
<path fill-rule="evenodd" clip-rule="evenodd" d="M2 12.5H13.5V11.5H2V12.5Z" fill="black"/>
<path fill-rule="evenodd" clip-rule="evenodd" d="M5.14641 8.14645L1.64641 11.6465C1.45115 11.8417 1.45115 12.1583 1.64641 12.3536L5.14641 15.8536L5.85352 15.1465L2.70707 12L5.85352 8.85356L5.14641 8.14645Z" fill="black"/>
<path fill-rule="evenodd" clip-rule="evenodd" d="M14.1379 4.5C11.8165 4.5 9.74417 5.59411 8.39281 7.30942L7.6073 6.69058C9.13768 4.74804 11.4934 3.5 14.1379 3.5C18.7643 3.5 22.5001 7.3138 22.5001 12C22.5001 16.6862 18.7643 20.5 14.1379 20.5C11.4934 20.5 9.13768 19.252 7.6073 17.3094L8.39281 16.6906C9.74417 18.4059 11.8165 19.5 14.1379 19.5C18.1957 19.5 21.5001 16.1504 21.5001 12C21.5001 7.84964 18.1957 4.5 14.1379 4.5Z" fill="black"/>
</svg>
