<svg width="20" height="20" viewBox="0 0 20 20" fill="none" xmlns="http://www.w3.org/2000/svg">
<path d="M19.89 8.32L19.1 5.8C19.0147 5.50876 18.8716 5.23767 18.6793 5.00292C18.4869 4.76817 18.2493 4.57456 17.9805 4.43364C17.7117 4.29272 17.4173 4.20737 17.1149 4.1827C16.8124 4.15802 16.508 4.19451 16.22 4.29L15.88 4.4C15.6136 4.48805 15.3299 4.51039 15.0531 4.46511C14.7762 4.41984 14.5144 4.3083 14.29 4.14L14.18 4.06C13.961 3.89237 13.7844 3.67562 13.6646 3.42723C13.5447 3.17884 13.4849 2.90575 13.49 2.63V2.35C13.4948 1.72202 13.2503 1.11779 12.81 0.67C12.6005 0.458452 12.3514 0.290362 12.0768 0.175383C11.8022 0.0604042 11.5077 0.000802192 11.21 0H8.65997C8.04815 0.00790627 7.46422 0.257192 7.03532 0.693583C6.60642 1.12997 6.36729 1.71813 6.36997 2.33V2.57C6.36901 2.86027 6.30293 3.14663 6.17659 3.40796C6.05024 3.6693 5.86687 3.89895 5.63997 4.08L5.50997 4.18C5.25932 4.36962 4.96614 4.49516 4.65593 4.5457C4.34572 4.59624 4.02786 4.57025 3.72997 4.47C3.45639 4.37533 3.16644 4.33715 2.87767 4.35777C2.5889 4.3784 2.30732 4.4574 2.04997 4.59C1.78203 4.72299 1.54432 4.90969 1.35163 5.1385C1.15895 5.36731 1.01542 5.63333 0.929974 5.92L0.109974 8.52C-0.080184 9.1062 -0.0314178 9.74374 0.245683 10.2942C0.522783 10.8447 1.00585 11.2636 1.58997 11.46H1.74997C2.01943 11.561 2.26128 11.7241 2.45588 11.9361C2.65048 12.148 2.79235 12.4029 2.86997 12.68L2.92997 12.84C3.04145 13.1461 3.07873 13.4743 3.03875 13.7977C2.99876 14.121 2.88266 14.4302 2.69997 14.7C2.33019 15.2036 2.17422 15.8328 2.26598 16.4508C2.35774 17.0688 2.68982 17.6256 3.18997 18L5.25997 19.57C5.65193 19.855 6.12541 20.0058 6.60997 20C6.73966 20.0127 6.87028 20.0127 6.99997 20C7.30008 19.9419 7.5852 19.8233 7.83793 19.6514C8.09067 19.4794 8.30573 19.2578 8.46997 19L8.69997 18.67C8.86131 18.4386 9.07479 18.2483 9.32319 18.1145C9.57159 17.9808 9.84795 17.9073 10.13 17.9C10.4255 17.8927 10.7181 17.9604 10.9804 18.0968C11.2427 18.2332 11.4662 18.4339 11.63 18.68L11.75 18.85C11.9205 19.1037 12.1411 19.3199 12.3983 19.4852C12.6555 19.6504 12.9438 19.7613 13.2454 19.8109C13.5471 19.8606 13.8557 19.848 14.1523 19.7739C14.4489 19.6997 14.7271 19.5657 14.97 19.38L17 17.86C17.4799 17.4872 17.7991 16.945 17.8921 16.3444C17.9851 15.7438 17.8448 15.1304 17.5 14.63L17.24 14.25C17.0836 14.0084 16.9812 13.736 16.9398 13.4512C16.8984 13.1664 16.9189 12.8761 17 12.6C17.0826 12.3044 17.2359 12.0334 17.4467 11.8104C17.6576 11.5874 17.9195 11.4191 18.21 11.32L18.41 11.25C18.9887 11.0492 19.4666 10.6312 19.7428 10.0845C20.019 9.53769 20.0718 8.90496 19.89 8.32ZM9.99997 13.5C9.30774 13.5 8.63105 13.2947 8.05548 12.9101C7.47991 12.5256 7.0313 11.9789 6.7664 11.3394C6.50149 10.6999 6.43218 9.99612 6.56722 9.31718C6.70227 8.63825 7.03562 8.01461 7.5251 7.52513C8.01458 7.03564 8.63822 6.7023 9.31716 6.56725C9.99609 6.4322 10.6998 6.50151 11.3394 6.76642C11.9789 7.03133 12.5255 7.47993 12.9101 8.0555C13.2947 8.63108 13.5 9.30777 13.5 10C13.5 10.9283 13.1312 11.8185 12.4748 12.4749C11.8185 13.1313 10.9282 13.5 9.99997 13.5Z" fill="black"/>
</svg>
